<svg xmlns="http://www.w3.org/2000/svg" viewBox="0 0 481.7 110" width="481.7" height="110"><g transform="translate(13.411,13.411) scale(0.90411)"><path d="M67.21 24.79 A30 30 0 1 0 67.21 67.21" fill="none" stroke="#FFFFFF" stroke-width="13" stroke-linecap="round"></path><path d="M67.21 24.79 A30 30 0 1 0 67.21 67.21" fill="none" stroke="#FF9F1C" stroke-width="2.6" stroke-linecap="round" stroke-dasharray="1.6 7"></path><circle cx="46" cy="46" r="8" fill="#FF9F1C"></circle><circle cx="46" cy="46" r="3" fill="#0E1B2C"></circle></g><g fill="#FFFFFF" transform="translate(103.664,76.000) scale(0.06000,-0.06000)"><path d="M72.99951171875 0V700H366.500244140625Q432.1502685546875 700 481.32525634765625 677.3499755859375Q530.500244140625 654.699951171875 558.0252075195312 612.8749389648438Q585.5501708984375 571.0499267578125 585.5501708984375 513.3499755859375V502.0499267578125Q585.5501708984375 436.2501220703125 554.1502685546875 396.72515869140625Q522.7503662109375 357.2001953125 478.0504150390625 340.9500732421875V325.0499267578125Q516.300537109375 323.39990234375 539.00048828125 299.47479248046875Q561.700439453125 275.5496826171875 561.700439453125 232.1497802734375V0H453.498779296875V217.3494873046875Q453.498779296875 244.1492919921875 439.2489013671875 259.8492431640625Q424.9990234375 275.5491943359375 393.899169921875 275.5491943359375H181.201171875V0ZM181.201171875 373.8507080078125H355.300048828125Q413.1492919921875 373.8507080078125 445.2489013671875 403.200439453125Q477.3485107421875 432.5501708984375 477.3485107421875 483.6495361328125V491.899658203125Q477.3485107421875 542.9990234375 445.92388916015625 572.3487548828125Q414.499267578125 601.698486328125 355.300048828125 601.698486328125H181.201171875Z" transform="translate(0.00,0.00)"></path><path d="M307.39990234375 -14Q233.39990234375 -14 175.62481689453125 16.52496337890625Q117.8497314453125 47.0499267578125 85.07464599609375 103.87493896484375Q52.299560546875 160.699951171875 52.299560546875 238.9500732421875V253.5501708984375Q52.299560546875 331.80029296875 85.07464599609375 388.62530517578125Q117.8497314453125 445.4503173828125 175.62481689453125 475.97528076171875Q233.39990234375 506.500244140625 307.39990234375 506.500244140625Q381.39990234375 506.500244140625 439.17498779296875 475.97528076171875Q496.9500732421875 445.4503173828125 529.7251586914062 388.62530517578125Q562.500244140625 331.80029296875 562.500244140625 253.5501708984375V238.9500732421875Q562.500244140625 160.699951171875 529.7251586914062 103.87493896484375Q496.9500732421875 47.0499267578125 439.17498779296875 16.52496337890625Q381.39990234375 -14 307.39990234375 -14ZM307.39990234375 77.701416015625Q375.19921875 77.701416015625 417.39892578125 121.1510009765625Q459.5986328125 164.6005859375 459.5986328125 241.60009765625V250.900146484375Q459.5986328125 327.899658203125 417.72393798828125 371.3492431640625Q375.8492431640625 414.798828125 307.39990234375 414.798828125Q239.9505615234375 414.798828125 197.57586669921875 371.3492431640625Q155.201171875 327.899658203125 155.201171875 250.900146484375V241.60009765625Q155.201171875 164.6005859375 197.57586669921875 121.1510009765625Q239.9505615234375 77.701416015625 307.39990234375 77.701416015625Z" transform="translate(632.00,0.00)"></path><path d="M228.5496826171875 -14Q176.2496337890625 -14 134.42462158203125 4.1500244140625Q92.599609375 22.300048828125 68.27459716796875 57.27508544921875Q43.9495849609375 92.2501220703125 43.9495849609375 142.2001953125Q43.9495849609375 192.500244140625 68.27459716796875 226.12530517578125Q92.599609375 259.7503662109375 135.22467041015625 276.72540283203125Q177.8497314453125 293.700439453125 231.7498779296875 293.700439453125H382.4488525390625V325.5501708984375Q382.4488525390625 368.9495849609375 356.2491455078125 395.12432861328125Q330.0494384765625 421.299072265625 276.099853515625 421.299072265625Q223.1502685546875 421.299072265625 195.07562255859375 396.29931640625Q167.0009765625 371.299560546875 157.901123046875 330.6500244140625L62.19970703125 361.9505615234375Q74.19970703125 401.700439453125 100.52471923828125 434.2503662109375Q126.8497314453125 466.80029296875 170.82476806640625 486.6502685546875Q214.7998046875 506.500244140625 277.39990234375 506.500244140625Q373.300048828125 506.500244140625 428.02520751953125 457.8502197265625Q482.7503662109375 409.2001953125 482.7503662109375 318.6500244140625V115.80126953125Q482.7503662109375 85.80126953125 510.7503662109375 85.80126953125H553.2001953125V0H476.19970703125Q441.299560546875 0 419.3994140625 18.17498779296875Q397.499267578125 36.3499755859375 397.499267578125 67.0499267578125V70.1497802734375H381.6490478515625Q374.499267578125 54.6500244140625 358.22442626953125 34.62506103515625Q341.9495849609375 14.60009765625 310.899658203125 0.300048828125Q279.8497314453125 -14 228.5496826171875 -14ZM244.2501220703125 71.201171875Q305.6495361328125 71.201171875 344.0491943359375 106.6507568359375Q382.4488525390625 142.100341796875 382.4488525390625 203.699462890625V214.3994140625H237.9500732421875Q197.00048828125 214.3994140625 171.92584228515625 196.77459716796875Q146.8511962890625 179.1497802734375 146.8511962890625 145.1502685546875Q146.8511962890625 111.1507568359375 172.92584228515625 91.17596435546875Q199.00048828125 71.201171875 244.2501220703125 71.201171875Z" transform="translate(1247.00,0.00)"></path><path d="M279.79931640625 -14Q218.699462890625 -14 166.67449951171875 15.8499755859375Q114.6495361328125 45.699951171875 83.47454833984375 102.52496337890625Q52.299560546875 159.3499755859375 52.299560546875 238.9500732421875V253.5501708984375Q52.299560546875 333.1502685546875 83.299560546875 389.97528076171875Q114.299560546875 446.80029296875 166.17449951171875 476.6502685546875Q218.0494384765625 506.500244140625 279.79931640625 506.500244140625Q327.9490966796875 506.500244140625 360.72393798828125 494.600341796875Q393.498779296875 482.700439453125 414.07366943359375 464.42559814453125Q434.6485595703125 446.1507568359375 445.698486328125 425.700927734375H461.5986328125V700H564.500244140625V0H463.5986328125V70.1492919921875H447.698486328125Q429.298583984375 37.9495849609375 390.6488037109375 11.97479248046875Q351.9990234375 -14 279.79931640625 -14ZM309.39990234375 76.4013671875Q376.1492919921875 76.4013671875 419.52398681640625 119.32598876953125Q462.898681640625 162.2506103515625 462.898681640625 241.60009765625V250.900146484375Q462.898681640625 330.2496337890625 419.8489990234375 373.17425537109375Q376.79931640625 416.098876953125 309.39990234375 416.098876953125Q243.00048828125 416.098876953125 199.4508056640625 373.17425537109375Q155.901123046875 330.2496337890625 155.901123046875 250.900146484375V241.60009765625Q155.901123046875 162.2506103515625 199.4508056640625 119.32598876953125Q243.00048828125 76.4013671875 309.39990234375 76.4013671875Z" transform="translate(1812.00,0.00)"></path><path d="M332.699951171875 -14Q205.1497802734375 -14 130.02471923828125 58.5Q54.899658203125 131 54.899658203125 267.7498779296875V432.2501220703125Q54.899658203125 569 130.02471923828125 641.5Q205.1497802734375 714 332.699951171875 714Q459.2501220703125 714 527.6502685546875 644.199951171875Q596.0504150390625 574.39990234375 596.0504150390625 453.1497802734375V447.499755859375H489.1488037109375V456.4498291015625Q489.1488037109375 526.8492431640625 450.799072265625 571.9238891601562Q412.4493408203125 616.99853515625 332.699951171875 616.99853515625Q253.2506103515625 616.99853515625 208.17596435546875 568.39892578125Q163.101318359375 519.79931640625 163.101318359375 434.2501220703125V265.7498779296875Q163.101318359375 180.8507080078125 208.17596435546875 131.92608642578125Q253.2506103515625 83.00146484375 332.699951171875 83.00146484375Q412.4493408203125 83.00146484375 450.799072265625 128.401123046875Q489.1488037109375 173.80078125 489.1488037109375 243.5501708984375V260.500244140625H596.0504150390625V246.8502197265625Q596.0504150390625 125.60009765625 527.6502685546875 55.800048828125Q459.2501220703125 -14 332.699951171875 -14Z" transform="translate(2453.00,0.00)"></path><path d="M307.39990234375 -14Q233.39990234375 -14 175.62481689453125 16.52496337890625Q117.8497314453125 47.0499267578125 85.07464599609375 103.87493896484375Q52.299560546875 160.699951171875 52.299560546875 238.9500732421875V253.5501708984375Q52.299560546875 331.80029296875 85.07464599609375 388.62530517578125Q117.8497314453125 445.4503173828125 175.62481689453125 475.97528076171875Q233.39990234375 506.500244140625 307.39990234375 506.500244140625Q381.39990234375 506.500244140625 439.17498779296875 475.97528076171875Q496.9500732421875 445.4503173828125 529.7251586914062 388.62530517578125Q562.500244140625 331.80029296875 562.500244140625 253.5501708984375V238.9500732421875Q562.500244140625 160.699951171875 529.7251586914062 103.87493896484375Q496.9500732421875 47.0499267578125 439.17498779296875 16.52496337890625Q381.39990234375 -14 307.39990234375 -14ZM307.39990234375 77.701416015625Q375.19921875 77.701416015625 417.39892578125 121.1510009765625Q459.5986328125 164.6005859375 459.5986328125 241.60009765625V250.900146484375Q459.5986328125 327.899658203125 417.72393798828125 371.3492431640625Q375.8492431640625 414.798828125 307.39990234375 414.798828125Q239.9505615234375 414.798828125 197.57586669921875 371.3492431640625Q155.201171875 327.899658203125 155.201171875 250.900146484375V241.60009765625Q155.201171875 164.6005859375 197.57586669921875 121.1510009765625Q239.9505615234375 77.701416015625 307.39990234375 77.701416015625Z" transform="translate(3096.00,0.00)"></path><path d="M76.299560546875 0V492.500244140625H177.201171875V418.7508544921875H193.101318359375Q207.201171875 449.300537109375 243.0009765625 475.2503662109375Q278.80078125 501.2001953125 349.6505126953125 501.2001953125Q405.900634765625 501.2001953125 449.57562255859375 476.27508544921875Q493.2506103515625 451.3499755859375 518.1255493164062 405.5499267578125Q543.00048828125 359.7498779296875 543.00048828125 296V0H440.098876953125V288.099853515625Q440.098876953125 352.499267578125 408.22418212890625 382.9490966796875Q376.3494873046875 413.39892578125 319.7498779296875 413.39892578125Q255.80029296875 413.39892578125 217.500732421875 371.0491943359375Q179.201171875 328.699462890625 179.201171875 248.8502197265625V0Z" transform="translate(3711.00,0.00)"></path><path d="M261.39990234375 0Q215.899658203125 0 189.2493896484375 26.82525634765625Q162.59912109375 53.6505126953125 162.59912109375 99.40087890625V405.9990234375H27.39990234375V492.500244140625H162.59912109375V656.299560546875H265.500732421875V492.500244140625H413.39990234375V405.9990234375H265.500732421875V116.501220703125Q265.500732421875 86.501220703125 294.20068359375 86.501220703125H396.500244140625V0Z" transform="translate(4312.00,0.00)"></path><path d="M76.299560546875 0V492.500244140625H177.201171875V434.7503662109375H193.101318359375Q205.1512451171875 465.80029296875 231.3511962890625 480.1502685546875Q257.5511474609375 494.500244140625 296.80078125 494.500244140625H355.7508544921875V402.098876953125H293.0509033203125Q242.60107421875 402.098876953125 210.901123046875 374.67401123046875Q179.201171875 347.2491455078125 179.201171875 289.699462890625V0Z" transform="translate(4770.00,0.00)"></path><path d="M307.39990234375 -14Q233.39990234375 -14 175.62481689453125 16.52496337890625Q117.8497314453125 47.0499267578125 85.07464599609375 103.87493896484375Q52.299560546875 160.699951171875 52.299560546875 238.9500732421875V253.5501708984375Q52.299560546875 331.80029296875 85.07464599609375 388.62530517578125Q117.8497314453125 445.4503173828125 175.62481689453125 475.97528076171875Q233.39990234375 506.500244140625 307.39990234375 506.500244140625Q381.39990234375 506.500244140625 439.17498779296875 475.97528076171875Q496.9500732421875 445.4503173828125 529.7251586914062 388.62530517578125Q562.500244140625 331.80029296875 562.500244140625 253.5501708984375V238.9500732421875Q562.500244140625 160.699951171875 529.7251586914062 103.87493896484375Q496.9500732421875 47.0499267578125 439.17498779296875 16.52496337890625Q381.39990234375 -14 307.39990234375 -14ZM307.39990234375 77.701416015625Q375.19921875 77.701416015625 417.39892578125 121.1510009765625Q459.5986328125 164.6005859375 459.5986328125 241.60009765625V250.900146484375Q459.5986328125 327.899658203125 417.72393798828125 371.3492431640625Q375.8492431640625 414.798828125 307.39990234375 414.798828125Q239.9505615234375 414.798828125 197.57586669921875 371.3492431640625Q155.201171875 327.899658203125 155.201171875 250.900146484375V241.60009765625Q155.201171875 164.6005859375 197.57586669921875 121.1510009765625Q239.9505615234375 77.701416015625 307.39990234375 77.701416015625Z" transform="translate(5139.00,0.00)"></path><path d="M76.299560546875 0V700H179.201171875V0Z" transform="translate(5754.00,0.00)"></path></g></svg>